<?xml version="1.0" encoding="UTF-8"?>
<!--Generator: Apple Native CoreSVG 175-->
<!DOCTYPE svg
PUBLIC "-//W3C//DTD SVG 1.1//EN"
       "http://www.w3.org/Graphics/SVG/1.1/DTD/svg11.dtd">
<svg version="1.1" xmlns="http://www.w3.org/2000/svg" xmlns:xlink="http://www.w3.org/1999/xlink" width="89.5605" height="90.3076">
 <g>
  <rect height="90.3076" opacity="0" width="89.5605" x="0" y="0"/>
  <path d="M89.5605 22.0166L89.5605 5.49316Q89.5605 3.73535 88.3521 2.74658Q87.1436 1.75781 85.4297 2.10938L62.8857 7.03125Q58.5352 7.99805 58.5352 11.6455L58.623 60.5127Q58.9307 63.8525 55.8984 64.4678L48.9111 65.918Q42.3193 67.3242 39.1553 70.6201Q35.9912 73.916 35.9912 78.8818Q35.9912 83.9355 39.4849 87.1216Q42.9785 90.3076 48.4717 90.3076Q50.8887 90.3076 53.6572 89.3628Q56.4258 88.418 58.9307 86.3525Q61.4355 84.2871 62.9956 80.9253Q64.5557 77.5635 64.5557 72.7734L64.5557 32.5635Q64.5557 30.8496 65.0391 30.2563Q65.5225 29.6631 67.1045 29.3115L87.1875 24.917Q88.2861 24.6533 88.9233 23.8843Q89.5605 23.1152 89.5605 22.0166ZM2.98828 24.082L42.2754 24.082Q43.5059 24.082 44.3848 23.2031Q45.2637 22.3242 45.2637 21.0938Q45.2637 19.9072 44.3848 19.0283Q43.5059 18.1494 42.2754 18.1494L2.98828 18.1494Q1.75781 18.1494 0.878906 19.0283Q0 19.9072 0 21.0938Q0 22.3242 0.878906 23.2031Q1.75781 24.082 2.98828 24.082ZM2.98828 39.7266L42.2754 39.7266Q43.5498 39.7266 44.4067 38.8477Q45.2637 37.9688 45.2637 36.6943Q45.2637 35.4639 44.3848 34.6289Q43.5059 33.7939 42.2754 33.7939L2.98828 33.7939Q1.75781 33.7939 0.878906 34.6289Q0 35.4639 0 36.6943Q0 37.9688 0.856934 38.8477Q1.71387 39.7266 2.98828 39.7266ZM2.98828 55.3711L42.2754 55.3711Q43.5498 55.3711 44.4067 54.5142Q45.2637 53.6572 45.2637 52.3828Q45.2637 51.1523 44.3848 50.2954Q43.5059 49.4385 42.2754 49.4385L2.98828 49.4385Q1.75781 49.4385 0.878906 50.2954Q0 51.1523 0 52.3828Q0 53.6572 0.856934 54.5142Q1.71387 55.3711 2.98828 55.3711Z" fill="#ffffff"/>
 </g>
</svg>
