<?xml version="1.0" encoding="UTF-8"?>
<!--Generator: Apple Native CoreSVG 175-->
<!DOCTYPE svg
PUBLIC "-//W3C//DTD SVG 1.1//EN"
       "http://www.w3.org/Graphics/SVG/1.1/DTD/svg11.dtd">
<svg version="1.1" xmlns="http://www.w3.org/2000/svg" xmlns:xlink="http://www.w3.org/1999/xlink" width="99.7998" height="80.9912">
 <g>
  <rect height="80.9912" opacity="0" width="99.7998" x="0" y="0"/>
  <path d="M0 66.7969Q0 73.6084 3.44971 77.0142Q6.89941 80.4199 13.7988 80.4199L87.3193 80.4199Q93.208 80.4199 96.5039 77.0142Q99.7998 73.6084 99.7998 66.7969L99.7998 30.7617L0 30.7617ZM0 25.0049L99.7998 25.0049L99.7998 21.665Q99.7998 14.8975 96.3281 11.4697Q92.8564 8.04199 86.001 8.04199L43.8135 8.04199Q41.5723 8.04199 40.0342 7.44873Q38.4961 6.85547 36.8262 5.44922L34.1455 3.25195Q32.6953 2.02148 31.355 1.31836Q30.0146 0.615234 28.4106 0.307617Q26.8066 0 24.6533 0L12.1289 0Q6.32812 0 3.16406 3.2959Q0 6.5918 0 13.2275Z" fill="#ffffff"/>
 </g>
</svg>
