<?xml version="1.0" encoding="UTF-8"?>
<!--Generator: Apple Native CoreSVG 175-->
<!DOCTYPE svg
PUBLIC "-//W3C//DTD SVG 1.1//EN"
       "http://www.w3.org/Graphics/SVG/1.1/DTD/svg11.dtd">
<svg version="1.1" xmlns="http://www.w3.org/2000/svg" xmlns:xlink="http://www.w3.org/1999/xlink" width="16.4258" height="20.9473">
 <g>
  <rect height="20.9473" opacity="0" width="16.4258" x="0" y="0"/>
  <path d="M3.7793 7.94922L12.6465 7.94922Q13.1152 7.94922 13.3154 7.75391Q13.5156 7.55859 13.5156 7.09961L13.5156 3.76953Q13.5156 3.31055 13.3154 3.11035Q13.1152 2.91016 12.6465 2.91016L3.7793 2.91016Q3.31055 2.91016 3.11035 3.11035Q2.91016 3.31055 2.91016 3.76953L2.91016 7.09961Q2.91016 7.55859 3.11035 7.75391Q3.31055 7.94922 3.7793 7.94922ZM0 17.8809Q0 19.4141 0.756836 20.1758Q1.51367 20.9375 3.02734 20.9375L13.3984 20.9375Q14.9121 20.9375 15.6689 20.1758Q16.4258 19.4141 16.4258 17.8809L16.4258 3.06641Q16.4258 1.54297 15.6689 0.771484Q14.9121 0 13.3984 0L3.02734 0Q1.51367 0 0.756836 0.771484Q0 1.54297 0 3.06641ZM1.57227 17.8516L1.57227 3.0957Q1.57227 2.36328 1.95801 1.96777Q2.34375 1.57227 3.10547 1.57227L13.3203 1.57227Q14.082 1.57227 14.4678 1.96777Q14.8535 2.36328 14.8535 3.0957L14.8535 17.8516Q14.8535 18.584 14.4678 18.9746Q14.082 19.3652 13.3203 19.3652L3.10547 19.3652Q2.34375 19.3652 1.95801 18.9746Q1.57227 18.584 1.57227 17.8516Z" fill="#000000"/>
 </g>
</svg>
