<?xml version="1.0" encoding="UTF-8"?>
<!--Generator: Apple Native CoreSVG 175-->
<!DOCTYPE svg
PUBLIC "-//W3C//DTD SVG 1.1//EN"
       "http://www.w3.org/Graphics/SVG/1.1/DTD/svg11.dtd">
<svg version="1.1" xmlns="http://www.w3.org/2000/svg" xmlns:xlink="http://www.w3.org/1999/xlink" width="18.418" height="3.91602">
 <g>
  <rect height="3.91602" opacity="0" width="18.418" x="0" y="0"/>
  <path d="M3.93555 1.96289Q3.93555 1.15234 3.35938 0.581055Q2.7832 0.00976562 1.95312 0.00976562Q1.41602 0.00976562 0.97168 0.273438Q0.527344 0.537109 0.263672 0.981445Q0 1.42578 0 1.96289Q0 2.50977 0.263672 2.94922Q0.527344 3.38867 0.97168 3.65234Q1.41602 3.91602 1.95312 3.91602Q2.50977 3.91602 2.9541 3.65234Q3.39844 3.38867 3.66699 2.94922Q3.93555 2.50977 3.93555 1.96289ZM11.1621 1.96289Q11.1621 1.15234 10.5908 0.581055Q10.0195 0.00976562 9.20898 0.00976562Q8.67188 0.00976562 8.22754 0.273438Q7.7832 0.537109 7.52441 0.981445Q7.26562 1.42578 7.26562 1.96289Q7.26562 2.50977 7.52441 2.94922Q7.7832 3.38867 8.22754 3.65234Q8.67188 3.91602 9.20898 3.91602Q9.75586 3.91602 10.1953 3.65234Q10.6348 3.38867 10.8984 2.94922Q11.1621 2.50977 11.1621 1.96289ZM18.418 1.96289Q18.418 1.15234 17.8467 0.581055Q17.2754 0.00976562 16.4648 0.00976562Q15.918 0.00976562 15.4688 0.273438Q15.0195 0.537109 14.7559 0.981445Q14.4922 1.42578 14.4922 1.96289Q14.4922 2.50977 14.7559 2.94922Q15.0195 3.38867 15.4688 3.65234Q15.918 3.91602 16.4648 3.91602Q17.002 3.91602 17.4463 3.65234Q17.8906 3.38867 18.1543 2.94922Q18.418 2.50977 18.418 1.96289Z" fill="#000000"/>
 </g>
</svg>
