<?xml version="1.0" encoding="UTF-8" standalone="no"?> <!-- Created with Vectornator for iOS (http://vectornator.io/) --><!DOCTYPE svg PUBLIC "-//W3C//DTD SVG 1.1//EN" "http://www.w3.org/Graphics/SVG/1.1/DTD/svg11.dtd">
<svg height="100%" style="fill-rule:nonzero;clip-rule:evenodd;stroke-linecap:round;stroke-linejoin:round;" xmlns:xlink="http://www.w3.org/1999/xlink" xmlns="http://www.w3.org/2000/svg" xml:space="preserve" width="100%" xmlns:vectornator="http://vectornator.io" version="1.1" viewBox="0 0 640 512">
<metadata>
<vectornator:setting key="DimensionsVisible" value="1"/>
<vectornator:setting key="PencilOnly" value="0"/>
<vectornator:setting key="SnapToPoints" value="0"/>
<vectornator:setting key="OutlineMode" value="0"/>
<vectornator:setting key="CMYKEnabledKey" value="0"/>
<vectornator:setting key="RulersVisible" value="1"/>
<vectornator:setting key="SnapToEdges" value="0"/>
<vectornator:setting key="GuidesVisible" value="1"/>
<vectornator:setting key="DisplayWhiteBackground" value="0"/>
<vectornator:setting key="doHistoryDisabled" value="0"/>
<vectornator:setting key="SnapToGuides" value="1"/>
<vectornator:setting key="TimeLapseWatermarkDisabled" value="0"/>
<vectornator:setting key="Units" value="Points"/>
<vectornator:setting key="DynamicGuides" value="0"/>
<vectornator:setting key="IsolateActiveLayer" value="0"/>
<vectornator:setting key="SnapToGrid" value="0"/>
</metadata>
<defs/>
<g id="Untitled" vectornator:layerName="Untitled">
<path d="M96+224C131.3+224+160+195.3+160+160C160+124.7+131.3+96+96+96C60.7+96+32+124.7+32+160C32+195.3+60.7+224+96+224ZM544+224C579.3+224+608+195.3+608+160C608+124.7+579.3+96+544+96C508.7+96+480+124.7+480+160C480+195.3+508.7+224+544+224ZM576+256L512+256C494.4+256+478.5+263.1+466.9+274.6C507.2+296.7+535.8+336.6+542+384L608+384C625.7+384+640+369.7+640+352L640+320C640+284.7+611.3+256+576+256ZM320+256C381.9+256+432+205.9+432+144C432+82.1+381.9+32+320+32C258.1+32+208+82.1+208+144C208+205.9+258.1+256+320+256ZM396.8+288L388.5+288C367.7+298+344.6+304+320+304C295.4+304+272.4+298+251.5+288L243.2+288C179.6+288+128+339.6+128+403.2L128+432C128+458.5+149.5+480+176+480L464+480C490.5+480+512+458.5+512+432L512+403.2C512+339.6+460.4+288+396.8+288ZM173.1+274.6C161.5+263.1+145.6+256+128+256L64+256C28.7+256+0+284.7+0+320L0+352C0+369.7+14.3+384+32+384L97.9+384C104.2+336.6+132.8+296.7+173.1+274.6Z" opacity="1" fill="#ffffff"/>
</g>
</svg>
