<?xml version="1.0" encoding="UTF-8"?>
<svg height="600" width="800" xmlns="http://www.w3.org/2000/svg" xmlns:xlink="http://www.w3.org/1999/xlink">
    <g id="Notes" font-family="'LucidaGrande', 'Lucida Grande', sans-serif" font-size="13">
        <rect fill="white" height="600.0" width="800.0" x="0.0" y="0.0" />
        <g font-size="13">
            <text x="18.0" y="176.0">Small</text>
            <text x="18.0" y="376.0">Medium</text>
            <text x="18.0" y="576.0">Large</text>
        </g>
        <g font-size="9">
            <text x="250.0" y="30.0">Ultralight</text>
            <text x="450.0" y="30.0">Regular</text>
            <text x="650.0" y="30.0">Black</text>
            <text id="template-version" fill="#505050" text-anchor="end" x="785.0" y="575.0">Template v.3.0</text>
            <a href="https://github.com/swhitty/SwiftDraw">
                <text fill="#505050" text-anchor="end" x="785.0" y="590.0">https://github.com/swhitty/SwiftDraw</text>
            </a>
        </g>
    </g>
    <g id="Guides" stroke="rgb(39, 170, 225)" stroke-width="0.5">
        <path id="Capline-S" d="M18,76 l800,0" />
        <path id="H-reference" d="M85,145.755 L87.685,145.755 L113.369,79.287 L114.052,79.287 L114.052,76 L112.148,76 L85,145.755 Z M95.693,121.536 L130.996,121.536 L130.263,119.313 L96.474,119.313 L95.693,121.536 Z M139.15,145.755 L141.787,145.755 L114.638,76 L113.466,76 L113.466,79.287 L139.15,145.755 Z" stroke="none" />
        <path id="Baseline-S" d="M18,146 l800,0" />
        <path id="left-margin-Ultralight-S" d="M218.704,56 l0,110" />
        <path id="right-margin-Ultralight-S" d="M311.296,56 l0,110" />
        <path id="left-margin-Regular-S" d="M418.704,56 l0,110" />
        <path id="right-margin-Regular-S" d="M511.296,56 l0,110" />
        <path id="left-margin-Black-S" d="M618.704,56 l0,110" />
        <path id="right-margin-Black-S" d="M711.296,56 l0,110" />
        <path id="Capline-M" d="M18,276 l800,0" />
        <path id="Baseline-M" d="M18,346 l800,0" />
        <path id="Capline-L" d="M18,476 l800,0" />
        <path id="Baseline-L" d="M18,546 l800,0" />
    </g>
    <g id="Symbols">
        <g id="Ultralight-S">
            <path d="M272.037,148.684 C271.204,151.764 268.056,152.481 265,152.481 C261.944,152.481 258.796,151.764 257.963,148.684 C256.724,144.077 254.63,132.534 254.63,127.163 C254.63,121.467 259.676,120.074 265,120.074 C270.324,120.074 275.37,121.467 275.37,127.163 C275.37,132.502 273.285,144.044 272.037,148.684 Z M254.122,116.275 C251.093,113.308 249.268,109.117 249.458,104.511 C249.791,96.454 256.327,89.935 264.385,89.623 C273.242,89.28 280.556,96.385 280.556,105.167 C280.556,109.514 278.763,113.449 275.878,116.275 C275.445,116.699 275.489,117.407 275.98,117.763 C277.489,118.859 278.647,120.249 279.421,121.873 C279.703,122.465 280.473,122.628 280.952,122.179 C285.623,117.797 288.495,111.52 288.326,104.588 C288.026,92.24 278.021,82.193 265.675,81.843 C252.502,81.469 241.667,92.077 241.667,105.167 C241.667,111.869 244.508,117.919 249.047,122.179 C249.526,122.628 250.297,122.466 250.579,121.873 C251.353,120.249 252.511,118.859 254.02,117.763 C254.511,117.407 254.555,116.699 254.122,116.275 Z M265,69.519 C244.94,69.519 228.704,85.752 228.704,105.815 C228.704,120.397 237.227,132.656 249.078,138.45 C249.78,138.794 250.58,138.2 250.461,137.428 C250.075,134.914 249.758,132.414 249.585,130.243 C249.561,129.946 249.399,129.678 249.151,129.512 C241.471,124.359 236.421,115.574 236.482,105.637 C236.578,90.043 249.33,77.337 264.924,77.296 C280.684,77.255 293.519,90.064 293.519,105.815 C293.519,115.85 288.308,124.691 280.45,129.775 C280.288,132.049 279.953,134.731 279.539,137.428 C279.42,138.2 280.22,138.794 280.922,138.45 C292.745,132.669 301.296,120.428 301.296,105.815 C301.296,85.755 285.063,69.519 265,69.519 Z M265,95.444 C259.273,95.444 254.63,100.087 254.63,105.815 C254.63,111.542 259.273,116.185 265,116.185 C270.727,116.185 275.37,111.542 275.37,105.815 C275.37,100.087 270.727,95.444 265,95.444 Z" />
        </g>
        <g id="Regular-S">
            <path d="M472.037,148.684 C471.204,151.764 468.056,152.481 465,152.481 C461.944,152.481 458.796,151.764 457.963,148.684 C456.724,144.077 454.63,132.534 454.63,127.163 C454.63,121.467 459.676,120.074 465,120.074 C470.324,120.074 475.37,121.467 475.37,127.163 C475.37,132.502 473.285,144.044 472.037,148.684 Z M454.122,116.275 C451.093,113.308 449.268,109.117 449.458,104.511 C449.791,96.454 456.327,89.935 464.385,89.623 C473.242,89.28 480.556,96.385 480.556,105.167 C480.556,109.514 478.763,113.449 475.878,116.275 C475.445,116.699 475.489,117.407 475.98,117.763 C477.489,118.859 478.647,120.249 479.421,121.873 C479.703,122.465 480.473,122.628 480.952,122.179 C485.623,117.797 488.495,111.52 488.326,104.588 C488.026,92.24 478.021,82.193 465.675,81.843 C452.502,81.469 441.667,92.077 441.667,105.167 C441.667,111.869 444.508,117.919 449.047,122.179 C449.526,122.628 450.297,122.466 450.579,121.873 C451.353,120.249 452.511,118.859 454.02,117.763 C454.511,117.407 454.555,116.699 454.122,116.275 Z M465,69.519 C444.94,69.519 428.704,85.752 428.704,105.815 C428.704,120.397 437.227,132.656 449.078,138.45 C449.78,138.794 450.58,138.2 450.461,137.428 C450.075,134.914 449.758,132.414 449.585,130.243 C449.561,129.946 449.399,129.678 449.151,129.512 C441.471,124.359 436.421,115.574 436.482,105.637 C436.578,90.043 449.33,77.337 464.924,77.296 C480.684,77.255 493.519,90.064 493.519,105.815 C493.519,115.85 488.308,124.691 480.45,129.775 C480.288,132.049 479.953,134.731 479.539,137.428 C479.42,138.2 480.22,138.794 480.922,138.45 C492.745,132.669 501.296,120.428 501.296,105.815 C501.296,85.755 485.063,69.519 465,69.519 Z M465,95.444 C459.273,95.444 454.63,100.087 454.63,105.815 C454.63,111.542 459.273,116.185 465,116.185 C470.727,116.185 475.37,111.542 475.37,105.815 C475.37,100.087 470.727,95.444 465,95.444 Z" />
        </g>
        <g id="Black-S">
            <path d="M672.037,148.684 C671.204,151.764 668.056,152.481 665,152.481 C661.945,152.481 658.796,151.764 657.963,148.684 C656.724,144.077 654.63,132.534 654.63,127.163 C654.63,121.467 659.676,120.074 665,120.074 C670.324,120.074 675.37,121.467 675.37,127.163 C675.37,132.502 673.285,144.044 672.037,148.684 Z M654.122,116.275 C651.093,113.308 649.268,109.117 649.458,104.511 C649.791,96.454 656.328,89.935 664.385,89.623 C673.242,89.28 680.556,96.385 680.556,105.167 C680.556,109.514 678.763,113.449 675.878,116.275 C675.445,116.699 675.489,117.407 675.98,117.763 C677.489,118.859 678.647,120.249 679.421,121.873 C679.703,122.465 680.473,122.628 680.952,122.179 C685.623,117.797 688.495,111.52 688.326,104.588 C688.026,92.24 678.021,82.193 665.675,81.843 C652.502,81.469 641.667,92.077 641.667,105.167 C641.667,111.869 644.508,117.919 649.047,122.179 C649.526,122.628 650.297,122.466 650.579,121.873 C651.353,120.249 652.511,118.859 654.02,117.763 C654.511,117.407 654.555,116.699 654.122,116.275 Z M665,69.519 C644.94,69.519 628.704,85.752 628.704,105.815 C628.704,120.397 637.227,132.656 649.078,138.45 C649.78,138.794 650.58,138.2 650.461,137.428 C650.075,134.914 649.758,132.414 649.585,130.243 C649.561,129.946 649.399,129.678 649.151,129.512 C641.471,124.359 636.421,115.574 636.482,105.637 C636.578,90.043 649.33,77.337 664.924,77.296 C680.684,77.255 693.519,90.064 693.519,105.815 C693.519,115.85 688.308,124.691 680.45,129.775 C680.288,132.049 679.953,134.731 679.539,137.428 C679.42,138.2 680.22,138.794 680.922,138.45 C692.745,132.669 701.296,120.428 701.296,105.815 C701.296,85.755 685.063,69.519 665,69.519 Z M665,95.444 C659.273,95.444 654.63,100.087 654.63,105.815 C654.63,111.542 659.273,116.185 665,116.185 C670.727,116.185 675.37,111.542 675.37,105.815 C675.37,100.087 670.727,95.444 665,95.444 Z" />
        </g>
    </g>
</svg>