<?xml version="1.0" encoding="UTF-8" standalone="no"?> <!-- Created with Vectornator for iOS (http://vectornator.io/) --><!DOCTYPE svg PUBLIC "-//W3C//DTD SVG 1.1//EN" "http://www.w3.org/Graphics/SVG/1.1/DTD/svg11.dtd">
<svg height="100%" style="fill-rule:nonzero;clip-rule:evenodd;stroke-linecap:round;stroke-linejoin:round;" xmlns:xlink="http://www.w3.org/1999/xlink" xmlns="http://www.w3.org/2000/svg" xml:space="preserve" width="100%" xmlns:vectornator="http://vectornator.io" version="1.1" viewBox="0 0 512 512">
<metadata>
<vectornator:setting key="DimensionsVisible" value="1"/>
<vectornator:setting key="PencilOnly" value="0"/>
<vectornator:setting key="SnapToPoints" value="0"/>
<vectornator:setting key="OutlineMode" value="0"/>
<vectornator:setting key="CMYKEnabledKey" value="0"/>
<vectornator:setting key="RulersVisible" value="1"/>
<vectornator:setting key="SnapToEdges" value="0"/>
<vectornator:setting key="GuidesVisible" value="1"/>
<vectornator:setting key="DisplayWhiteBackground" value="0"/>
<vectornator:setting key="doHistoryDisabled" value="0"/>
<vectornator:setting key="SnapToGuides" value="1"/>
<vectornator:setting key="TimeLapseWatermarkDisabled" value="0"/>
<vectornator:setting key="Units" value="Points"/>
<vectornator:setting key="DynamicGuides" value="0"/>
<vectornator:setting key="IsolateActiveLayer" value="0"/>
<vectornator:setting key="SnapToGrid" value="0"/>
</metadata>
<defs/>
<g id="Untitled" vectornator:layerName="Untitled">
<path d="M502.6+54.6L457.4+9.4C444.9-3.1+424.6-3.1+412.1+9.4L344.2+77.3C331.7+89.8+331.7+110.1+344.2+122.6L290+176.7C244.6+147.7+189.6+147.8+156.5+180.9C146.8+190.6+140.1+202.1+136+214.8C129.9+233.6+112.5+247.9+93.3+249.7C69.3+252+47+261.3+29.9+278.5C-16.3+324.6-8+407.6+48.2+463.8C104.4+520+187.4+528.2+233.5+482.1C250.7+465+260+442.7+262.3+418.6C264.1+399.5+278.4+382+297.2+375.9C309.9+371.8+321.4+365.1+331.1+355.4C364.2+322.3+364.2+267.3+335.3+221.9L389.5+167.7C402+180.2+422.3+180.2+434.8+167.7L502.7+99.8C515.1+87.4+515.1+67.1+502.6+54.6ZM208+352C181.5+352+160+330.5+160+304C160+277.5+181.5+256+208+256C234.5+256+256+277.5+256+304C256+330.5+234.5+352+208+352Z" opacity="1" fill="#ffffff"/>
</g>
</svg>
