<?xml version="1.0" encoding="UTF-8"?>
<!--Generator: Apple Native CoreSVG 175-->
<!DOCTYPE svg
PUBLIC "-//W3C//DTD SVG 1.1//EN"
       "http://www.w3.org/Graphics/SVG/1.1/DTD/svg11.dtd">
<svg version="1.1" xmlns="http://www.w3.org/2000/svg" xmlns:xlink="http://www.w3.org/1999/xlink" width="112.312" height="93.2959">
 <g>
  <rect height="93.2959" opacity="0" width="112.312" x="0" y="0"/>
  <path d="M0.647195 85.3418Q-0.143821 87.1436 0.0319602 88.9453Q0.207741 90.7471 1.43821 91.9556Q2.66868 93.1641 4.99778 93.1641Q6.31614 93.1641 7.50266 92.5708Q8.68919 91.9775 10.2712 90.7031L22.3122 80.6396Q23.0154 80.0684 23.4109 80.0684Q23.8064 80.0684 24.5095 80.6396L36.5505 90.7031Q38.0886 91.9775 39.2971 92.5708Q40.5056 93.1641 41.824 93.1641Q44.1531 93.1641 45.3835 91.9556Q46.614 90.7471 46.7898 88.9453Q46.9656 87.1436 46.1745 85.3418L26.7507 41.4404L26.7507 21.0498Q26.7507 16.04 27.1682 12.041Q27.5857 8.04199 28.0032 5.44922Q28.4206 2.85645 28.4206 2.15332Q28.4206 1.23047 27.8933 0.703125Q27.3659 0.175781 26.487 0.175781Q25.4763 0.175781 23.9822 1.80176L14.3142 12.9199Q13.699 13.623 13.8308 14.3481Q13.9626 15.0732 14.7097 15.4688Q17.654 16.6992 18.8406 17.666Q20.0271 18.6328 20.0271 21.0498L20.0271 41.3965ZM33.5183 77.3438Q32.6394 77.3438 32.0022 76.7065Q31.365 76.0693 31.365 75.1465Q31.365 74.2676 32.0241 73.5864Q32.6833 72.9053 33.5183 72.9053Q34.4411 72.9053 35.1003 73.5864Q35.7595 74.2676 35.7595 75.1465Q35.7595 76.0254 35.0783 76.6846Q34.3972 77.3438 33.5183 77.3438ZM31.1452 71.6748Q30.2663 71.6748 29.6072 71.0376Q28.948 70.4004 28.948 69.4775Q28.948 68.5986 29.6072 67.9175Q30.2663 67.2363 31.1452 67.2363Q32.0681 67.2363 32.7273 67.8955Q33.3865 68.5547 33.3865 69.4775Q33.3865 70.3564 32.7273 71.0156Q32.0681 71.6748 31.1452 71.6748ZM28.7722 65.9619Q27.8933 65.9619 27.2341 65.3247Q26.5749 64.6875 26.5749 63.8086Q26.5749 62.9297 27.2341 62.2266Q27.8933 61.5234 28.7722 61.5234Q29.6511 61.5234 30.3103 62.2046Q30.9695 62.8857 30.9695 63.8086Q30.9695 64.6875 30.3103 65.3247Q29.6511 65.9619 28.7722 65.9619ZM58.3913 93.2959Q64.2361 93.2959 68.6526 91.1206Q73.0691 88.9453 75.508 85.0342Q77.947 81.123 77.947 75.8496Q77.947 72.5977 77.112 70.1367Q76.2771 67.6758 75.2004 65.874Q74.1238 64.0723 73.3108 62.71Q72.4978 61.3477 72.4978 60.249Q72.4978 58.5352 73.2449 56.9531Q73.9919 55.3711 74.739 53.6133Q75.4861 51.8555 75.4861 49.6582Q75.4861 47.2852 74.0798 45.769Q72.6736 44.2529 70.4763 44.2529Q68.4548 44.2529 67.1804 45.2637Q65.906 46.2744 65.071 47.4609Q64.4118 48.3838 63.8845 48.999Q63.3572 49.6143 62.9177 49.6143Q62.3464 49.6143 62.0827 49.043Q61.8191 48.4717 61.7312 47.6147Q61.6433 46.7578 61.6433 46.0107L61.6872 19.0283Q61.6872 18.0176 61.8191 17.7319Q61.9509 17.4463 62.5222 17.2705Q63.2693 17.0068 63.5329 16.5674Q63.7966 16.1279 63.8845 15.2051L64.7634 6.24023Q64.8513 5.00977 63.8845 4.13086L60.1052 0.834961Q59.3581 0.175781 58.3913 0.175781Q57.3806 0.175781 56.6335 0.834961L52.8542 4.13086Q51.8874 5.00977 51.9753 6.24023L52.8542 15.2051Q53.03 16.9189 54.2605 17.2705Q54.7439 17.4023 54.8977 17.71Q55.0515 18.0176 55.0515 19.0283L55.1394 45.9668Q55.1394 46.9336 55.0295 47.7686Q54.9197 48.6035 54.634 49.1089Q54.3484 49.6143 53.9089 49.6143Q53.4255 49.6143 52.9201 48.9551Q52.4148 48.2959 51.6677 47.4609Q50.8327 46.2744 49.5803 45.2637Q48.3279 44.2529 46.3503 44.2529Q44.1091 44.2529 42.7029 45.769Q41.2966 47.2852 41.2966 49.6582Q41.2966 51.8555 42.0437 53.6133Q42.7907 55.3711 43.5158 56.9531Q44.2409 58.5352 44.2409 60.249Q44.2409 61.5234 43.1643 63.1055Q42.0876 64.6875 40.945 67.0166L47.6247 82.1338Q48.5915 84.3311 49.009 85.7812Q49.4265 87.2314 49.4265 88.6816Q49.4265 90.1758 48.8991 91.4941Q51.0525 92.373 53.4255 92.8345Q55.7986 93.2959 58.3913 93.2959ZM48.7234 75.1025Q48.0202 74.8828 47.6907 74.1577Q47.3611 73.4326 47.5808 72.7734L51.3601 62.4023Q51.6238 61.6992 52.3269 61.3696Q53.03 61.04 53.7331 61.3037Q54.4363 61.5234 54.7878 62.2485Q55.1394 62.9736 54.8757 63.6768L51.0964 74.0039Q50.8327 74.707 50.1296 75.0366Q49.4265 75.3662 48.7234 75.1025ZM68.0593 75.1025Q67.3122 75.3662 66.6311 75.0366Q65.9499 74.707 65.6863 74.0039L61.907 63.6768Q61.6433 62.9736 61.9949 62.2485Q62.3464 61.5234 63.0056 61.3037Q63.7527 61.04 64.4338 61.3696Q65.115 61.6992 65.3786 62.4023L69.1579 72.7734Q69.4216 73.4326 69.07 74.1577Q68.7185 74.8828 68.0593 75.1025ZM92.8445 93.0322Q101.765 93.0322 107.039 89.0991Q112.312 85.166 112.312 78.4424Q112.312 75.0586 111.433 72.8174Q110.554 70.5762 109.39 68.9941Q108.225 67.4121 107.324 66.0938Q106.424 64.7754 106.424 63.3252Q106.424 61.084 107.083 58.9307Q107.742 56.7773 107.742 54.0527Q107.742 49.5703 104.71 46.8457Q101.677 44.1211 96.1404 43.4619L96.1404 17.4023Q96.1404 15.9961 96.404 15.4248Q96.6677 14.8535 97.4587 14.3262Q98.6452 13.5352 98.5574 12.5244L97.8982 1.66992Q97.8542 1.01074 97.4367 0.593262Q97.0193 0.175781 96.404 0.175781L89.197 0.175781Q88.6257 0.175781 88.2082 0.593262Q87.7907 1.01074 87.7468 1.66992L87.0876 12.5244Q86.9997 13.5352 88.1863 14.3262Q88.9773 14.8975 89.2409 15.4688Q89.5046 16.04 89.5046 17.4023L89.5046 43.4619Q83.9675 44.1211 80.9353 46.8457Q77.9031 49.5703 77.9031 54.0527Q77.9031 56.7773 78.5622 58.9307Q79.2214 61.084 79.2214 63.3252Q79.2214 64.0283 78.9797 64.6655Q78.738 65.3027 78.3425 65.918Q79.2654 67.8955 79.9465 70.4004Q80.6277 72.9053 80.6277 75.8496Q80.6277 79.2773 79.6828 82.2437Q78.738 85.21 76.9802 87.627Q79.4851 90.2197 83.5281 91.626Q87.571 93.0322 92.8445 93.0322ZM92.8445 66.9287Q90.779 66.9287 89.3288 65.5005Q87.8786 64.0723 87.8786 62.0508Q87.8786 60.0293 89.3288 58.5791Q90.779 57.1289 92.8445 57.1289Q94.8659 57.1289 96.2942 58.5791Q97.7224 60.0293 97.7224 62.0508Q97.7224 64.0723 96.2942 65.5005Q94.8659 66.9287 92.8445 66.9287ZM87.0437 79.3213Q86.2087 79.3213 85.6155 78.728Q85.0222 78.1348 85.0222 77.3438Q85.0222 76.5088 85.6155 75.8936Q86.2087 75.2783 87.0437 75.2783L98.5574 75.2783Q99.3484 75.2783 99.9416 75.8716Q100.535 76.4648 100.535 77.3438Q100.535 78.1348 99.9416 78.728Q99.3484 79.3213 98.5574 79.3213Z" fill="rgba(255,255,255,0.85)"/>
 </g>
</svg>
